<svg width="34" height="13" viewBox="0 0 34 13" fill="none" xmlns="http://www.w3.org/2000/svg">
<path d="M9 12H7.544L1.688 3.12V12H0.232V0.832H1.688L7.544 9.696V0.832H9V12ZM19.482 7.28C19.482 7.55733 19.466 7.85067 19.434 8.16H12.426C12.4793 9.024 12.7727 9.70133 13.306 10.192C13.85 10.672 14.506 10.912 15.274 10.912C15.9033 10.912 16.426 10.768 16.842 10.48C17.2687 10.1813 17.5673 9.78667 17.738 9.296H19.306C19.0713 10.1387 18.602 10.8267 17.898 11.36C17.194 11.8827 16.3193 12.144 15.274 12.144C14.442 12.144 13.6953 11.9573 13.034 11.584C12.3833 11.2107 11.8713 10.6827 11.498 10C11.1247 9.30667 10.938 8.50667 10.938 7.6C10.938 6.69333 11.1193 5.89867 11.482 5.216C11.8447 4.53333 12.3513 4.01067 13.002 3.648C13.6633 3.27467 14.4207 3.088 15.274 3.088C16.106 3.088 16.842 3.26933 17.482 3.632C18.122 3.99467 18.6127 4.496 18.954 5.136C19.306 5.76533 19.482 6.48 19.482 7.28ZM17.978 6.976C17.978 6.42133 17.8553 5.94667 17.61 5.552C17.3647 5.14667 17.0287 4.84267 16.602 4.64C16.186 4.42667 15.722 4.32 15.21 4.32C14.474 4.32 13.8447 4.55467 13.322 5.024C12.81 5.49333 12.5167 6.144 12.442 6.976H17.978ZM25.9799 12L23.8999 8.736L21.8999 12H20.3799L23.2119 7.648L20.3799 3.232H22.0279L24.1079 6.48L26.0919 3.232H27.6119L24.7959 7.568L27.6279 12H25.9799ZM30.8361 4.432V9.6C30.8361 10.0267 30.9268 10.3307 31.1081 10.512C31.2895 10.6827 31.6041 10.768 32.0521 10.768H33.1241V12H31.8121C31.0015 12 30.3935 11.8133 29.9881 11.44C29.5828 11.0667 29.3801 10.4533 29.3801 9.6V4.432H28.2441V3.232H29.3801V1.024H30.8361V3.232H33.1241V4.432H30.8361Z" fill="black"/>
</svg>
