<svg width="33" height="13" viewBox="0 0 33 13" fill="none" xmlns="http://www.w3.org/2000/svg">
<path d="M7.688 4.112C7.688 5.04 7.368 5.81333 6.728 6.432C6.09867 7.04 5.13333 7.344 3.832 7.344H1.688V12H0.232V0.848H3.832C5.09067 0.848 6.04533 1.152 6.696 1.76C7.35733 2.368 7.688 3.152 7.688 4.112ZM3.832 6.144C4.64267 6.144 5.24 5.968 5.624 5.616C6.008 5.264 6.2 4.76267 6.2 4.112C6.2 2.736 5.41067 2.048 3.832 2.048H1.688V6.144H3.832ZM10.9536 4.656C11.2096 4.15467 11.5723 3.76533 12.0416 3.488C12.5216 3.21067 13.103 3.072 13.7856 3.072V4.576H13.4016C11.7696 4.576 10.9536 5.46133 10.9536 7.232V12H9.49763V3.232H10.9536V4.656ZM23.4664 7.28C23.4664 7.55733 23.4504 7.85067 23.4184 8.16H16.4104C16.4637 9.024 16.757 9.70133 17.2904 10.192C17.8344 10.672 18.4904 10.912 19.2584 10.912C19.8877 10.912 20.4104 10.768 20.8264 10.48C21.253 10.1813 21.5517 9.78667 21.7224 9.296H23.2904C23.0557 10.1387 22.5864 10.8267 21.8824 11.36C21.1784 11.8827 20.3037 12.144 19.2584 12.144C18.4264 12.144 17.6797 11.9573 17.0184 11.584C16.3677 11.2107 15.8557 10.6827 15.4824 10C15.109 9.30667 14.9224 8.50667 14.9224 7.6C14.9224 6.69333 15.1037 5.89867 15.4664 5.216C15.829 4.53333 16.3357 4.01067 16.9864 3.648C17.6477 3.27467 18.405 3.088 19.2584 3.088C20.0904 3.088 20.8264 3.26933 21.4664 3.632C22.1064 3.99467 22.597 4.496 22.9384 5.136C23.2904 5.76533 23.4664 6.48 23.4664 7.28ZM21.9624 6.976C21.9624 6.42133 21.8397 5.94667 21.5944 5.552C21.349 5.14667 21.013 4.84267 20.5864 4.64C20.1704 4.42667 19.7064 4.32 19.1944 4.32C18.4584 4.32 17.829 4.55467 17.3064 5.024C16.7944 5.49333 16.501 6.144 16.4264 6.976H21.9624ZM28.6523 10.656L31.3723 3.232H32.9243L29.4843 12H27.7883L24.3483 3.232H25.9163L28.6523 10.656Z" fill="black"/>
</svg>
